# xmcd CD database file
#
# Track frame offsets:
#	150
#	20657
#	36734
#	50553
#	66401
#	81965
#	99731
#	117983
#	134629
#	147676
#	164445
#	181120
#	197421
#	212307
#	236258
#	253288
#	272872
#
# Disc length: 3880 seconds
#
# Revision: 0
# Processed by: cddbd v1.5.2PL0 Copyright (c) Steve Scherf et al.
# Submitted via: CDex 1.51
#
DISCID=0a0f2611
DTITLE=Emmylou Harris - Songbird: Rare Tracks And Forgotten Gems [CD4)
DYEAR=2007
DGENRE=Country
TTITLE0=Beyond The Blue (with Patty Griffin)
TTITLE1=First In Line (with John Starling)
TTITLE2=Highway Of Heartache (with Carl Jackson)
TTITLE3=Alone And Forsaken (With Mark Knopfler and His Band)
TTITLE4=Child Of Mine
TTITLE5=Heaven Ain't Ready For You Yet
TTITLE6=Wish We Were Back In Missouri
TTITLE7=Mama's Hungry Eyes
TTITLE8=Here We Are (with George Jones)
TTITLE9=Waltz Across Texas Tonight
TTITLE10=Snowin' On Raton
TTITLE11=Gone
TTITLE12=Don't Let Our Love Die
TTITLE13=The Pearl (with Live)
TTITLE14=Wildwood Flower (with Randy Scruggs and Iris DeMent)
TTITLE15=Love And Happiness (with Mark Knopfler)
TTITLE16=When We're Gone, Long Gone (with Linda Ronstadt and Dolly Parton)
EXTD=YEAR: 2007
EXTT0=
EXTT1=
EXTT2=
EXTT3=
EXTT4=
EXTT5=
EXTT6=
EXTT7=
EXTT8=
EXTT9=
EXTT10=
EXTT11=
EXTT12=
EXTT13=
EXTT14=
EXTT15=
EXTT16=
PLAYORDER=
